<?xml version="1.0" encoding="UTF-8" standalone="no"?>
<!DOCTYPE svg PUBLIC "-//W3C//DTD SVG 1.1//EN"
 "http://www.w3.org/Graphics/SVG/1.1/DTD/svg11.dtd">
<!-- Generated by graphviz version 14.1.1 (20251213.1925)
 -->
<!-- Title: InheritanceTree Pages: 1 -->
<svg width="440pt" height="429pt"
 viewBox="0.00 0.00 440.00 429.00" xmlns="http://www.w3.org/2000/svg" xmlns:xlink="http://www.w3.org/1999/xlink">
<g id="graph0" class="graph" transform="scale(1 1) rotate(0) translate(4 424.5)">
<title>InheritanceTree</title>
<polygon fill="white" stroke="none" points="-4,4 -4,-424.5 435.75,-424.5 435.75,4 -4,4"/>
<text xml:space="preserve" text-anchor="middle" x="215.88" y="-7.2" font-family="Times New Roman,serif" font-size="14.00">simple_serial &#45; Inheritance Hierarchy</text>
<!-- SERIAL_PORT -->
<g id="node1" class="node">
<title>SERIAL_PORT</title>
<path fill="none" stroke="black" d="M141.62,-60.5C141.62,-60.5 61.88,-60.5 61.88,-60.5 55.88,-60.5 49.88,-54.5 49.88,-48.5 49.88,-48.5 49.88,-36.5 49.88,-36.5 49.88,-30.5 55.88,-24.5 61.88,-24.5 61.88,-24.5 141.62,-24.5 141.62,-24.5 147.62,-24.5 153.62,-30.5 153.62,-36.5 153.62,-36.5 153.62,-48.5 153.62,-48.5 153.62,-54.5 147.62,-60.5 141.62,-60.5"/>
<text xml:space="preserve" text-anchor="middle" x="101.75" y="-37.45" font-family="Times New Roman,serif" font-size="14.00">SERIAL_PORT</text>
</g>
<!-- SERIAL_PORT_CONFIG -->
<g id="node2" class="node">
<title>SERIAL_PORT_CONFIG</title>
<path fill="none" stroke="black" d="M170.12,-132.5C170.12,-132.5 33.38,-132.5 33.38,-132.5 27.38,-132.5 21.38,-126.5 21.38,-120.5 21.38,-120.5 21.38,-108.5 21.38,-108.5 21.38,-102.5 27.38,-96.5 33.38,-96.5 33.38,-96.5 170.12,-96.5 170.12,-96.5 176.12,-96.5 182.12,-102.5 182.12,-108.5 182.12,-108.5 182.12,-120.5 182.12,-120.5 182.12,-126.5 176.12,-132.5 170.12,-132.5"/>
<text xml:space="preserve" text-anchor="middle" x="101.75" y="-109.45" font-family="Times New Roman,serif" font-size="14.00">SERIAL_PORT_CONFIG</text>
</g>
<!-- SERIAL_PORT_ENUMERATOR -->
<g id="node3" class="node">
<title>SERIAL_PORT_ENUMERATOR</title>
<path fill="none" stroke="black" d="M191.5,-204.5C191.5,-204.5 12,-204.5 12,-204.5 6,-204.5 0,-198.5 0,-192.5 0,-192.5 0,-180.5 0,-180.5 0,-174.5 6,-168.5 12,-168.5 12,-168.5 191.5,-168.5 191.5,-168.5 197.5,-168.5 203.5,-174.5 203.5,-180.5 203.5,-180.5 203.5,-192.5 203.5,-192.5 203.5,-198.5 197.5,-204.5 191.5,-204.5"/>
<text xml:space="preserve" text-anchor="middle" x="101.75" y="-181.45" font-family="Times New Roman,serif" font-size="14.00">SERIAL_PORT_ENUMERATOR</text>
</g>
<!-- SIMPLE_SERIAL -->
<g id="node4" class="node">
<title>SIMPLE_SERIAL</title>
<path fill="none" stroke="black" d="M149.12,-276.5C149.12,-276.5 54.38,-276.5 54.38,-276.5 48.38,-276.5 42.38,-270.5 42.38,-264.5 42.38,-264.5 42.38,-252.5 42.38,-252.5 42.38,-246.5 48.38,-240.5 54.38,-240.5 54.38,-240.5 149.12,-240.5 149.12,-240.5 155.12,-240.5 161.12,-246.5 161.12,-252.5 161.12,-252.5 161.12,-264.5 161.12,-264.5 161.12,-270.5 155.12,-276.5 149.12,-276.5"/>
<text xml:space="preserve" text-anchor="middle" x="101.75" y="-253.45" font-family="Times New Roman,serif" font-size="14.00">SIMPLE_SERIAL</text>
</g>
<!-- LIB_TESTS -->
<g id="node5" class="node">
<title>LIB_TESTS</title>
<path fill="none" stroke="black" d="M131.88,-348.5C131.88,-348.5 71.62,-348.5 71.62,-348.5 65.62,-348.5 59.62,-342.5 59.62,-336.5 59.62,-336.5 59.62,-324.5 59.62,-324.5 59.62,-318.5 65.62,-312.5 71.62,-312.5 71.62,-312.5 131.88,-312.5 131.88,-312.5 137.88,-312.5 143.88,-318.5 143.88,-324.5 143.88,-324.5 143.88,-336.5 143.88,-336.5 143.88,-342.5 137.88,-348.5 131.88,-348.5"/>
<text xml:space="preserve" text-anchor="middle" x="101.75" y="-325.45" font-family="Times New Roman,serif" font-size="14.00">LIB_TESTS</text>
</g>
<!-- TEST_SET_BASE -->
<g id="node6" class="node">
<title>TEST_SET_BASE</title>
<path fill="none" stroke="black" d="M419.75,-348.5C419.75,-348.5 323.5,-348.5 323.5,-348.5 317.5,-348.5 311.5,-342.5 311.5,-336.5 311.5,-336.5 311.5,-324.5 311.5,-324.5 311.5,-318.5 317.5,-312.5 323.5,-312.5 323.5,-312.5 419.75,-312.5 419.75,-312.5 425.75,-312.5 431.75,-318.5 431.75,-324.5 431.75,-324.5 431.75,-336.5 431.75,-336.5 431.75,-342.5 425.75,-348.5 419.75,-348.5"/>
<text xml:space="preserve" text-anchor="middle" x="371.62" y="-325.45" font-family="Times New Roman,serif" font-size="14.00">TEST_SET_BASE</text>
</g>
<!-- LIB_TESTS&#45;&gt;TEST_SET_BASE -->
<g id="edge1" class="edge">
<title>LIB_TESTS&#45;&gt;TEST_SET_BASE</title>
<path fill="none" stroke="black" d="M144.21,-330.5C144.21,-330.5 299.6,-330.5 299.6,-330.5"/>
<polygon fill="none" stroke="black" points="299.6,-334 309.6,-330.5 299.6,-327 299.6,-334"/>
</g>
<!-- TEST_APP -->
<g id="node7" class="node">
<title>TEST_APP</title>
<path fill="none" stroke="black" d="M129.62,-420.5C129.62,-420.5 73.88,-420.5 73.88,-420.5 67.88,-420.5 61.88,-414.5 61.88,-408.5 61.88,-408.5 61.88,-396.5 61.88,-396.5 61.88,-390.5 67.88,-384.5 73.88,-384.5 73.88,-384.5 129.62,-384.5 129.62,-384.5 135.62,-384.5 141.62,-390.5 141.62,-396.5 141.62,-396.5 141.62,-408.5 141.62,-408.5 141.62,-414.5 135.62,-420.5 129.62,-420.5"/>
<text xml:space="preserve" text-anchor="middle" x="101.75" y="-397.45" font-family="Times New Roman,serif" font-size="14.00">TEST_APP</text>
</g>
</g>
</svg>
