<?xml version="1.0" encoding="UTF-8" standalone="no"?>
<!DOCTYPE svg PUBLIC "-//W3C//DTD SVG 1.1//EN"
 "http://www.w3.org/Graphics/SVG/1.1/DTD/svg11.dtd">
<!-- Generated by graphviz version 14.1.1 (20251213.1925)
 -->
<!-- Title: ContractCoverage Pages: 1 -->
<svg width="816pt" height="935pt"
 viewBox="48.00 48.00 768.00 887.00" xmlns="http://www.w3.org/2000/svg" xmlns:xlink="http://www.w3.org/1999/xlink">
<g id="graph0" class="graph" transform="scale(0.597603 0.597603) rotate(0) translate(84.32 1480.57)">
<title>ContractCoverage</title>
<polygon fill="white" stroke="none" points="-4,4 -4,-1400.25 1200.81,-1400.25 1200.81,4 -4,4"/>
<text xml:space="preserve" text-anchor="middle" x="598.41" y="-1382.75" font-family="Times New Roman,serif" font-size="10.00">simple_serial &#45; Contract Coverage</text>
<g id="clust1" class="cluster">
<title>cluster_SERIAL_PORT</title>
<polygon fill="white" stroke="black" points="78.69,-272.5 78.69,-813 648.69,-813 648.69,-272.5 78.69,-272.5"/>
<text xml:space="preserve" text-anchor="middle" x="363.69" y="-795.7" font-family="Times New Roman,serif" font-size="14.00">SERIAL_PORT</text>
</g>
<g id="clust2" class="cluster">
<title>cluster_SERIAL_PORT_CONFIG</title>
<polygon fill="white" stroke="black" points="702.56,-896.5 702.56,-1377 1196.81,-1377 1196.81,-896.5 702.56,-896.5"/>
<text xml:space="preserve" text-anchor="middle" x="949.69" y="-1359.7" font-family="Times New Roman,serif" font-size="14.00">SERIAL_PORT_CONFIG</text>
</g>
<g id="clust3" class="cluster">
<title>cluster_SERIAL_PORT_ENUMERATOR</title>
<polygon fill="white" stroke="black" points="741.63,-155.5 741.63,-492 1059.75,-492 1059.75,-155.5 741.63,-155.5"/>
<text xml:space="preserve" text-anchor="middle" x="900.69" y="-474.7" font-family="Times New Roman,serif" font-size="14.00">SERIAL_PORT_ENUMERATOR</text>
</g>
<g id="clust4" class="cluster">
<title>cluster_SIMPLE_SERIAL</title>
<polygon fill="white" stroke="black" points="312.25,-896.5 312.25,-1227 629.12,-1227 629.12,-896.5 312.25,-896.5"/>
<text xml:space="preserve" text-anchor="middle" x="470.69" y="-1209.7" font-family="Times New Roman,serif" font-size="14.00">SIMPLE_SERIAL</text>
</g>
<g id="clust5" class="cluster">
<title>cluster_LIB_TESTS</title>
<polygon fill="white" stroke="black" points="740.75,-584.5 740.75,-813 996.62,-813 996.62,-584.5 740.75,-584.5"/>
<text xml:space="preserve" text-anchor="middle" x="868.69" y="-795.7" font-family="Times New Roman,serif" font-size="14.00">LIB_TESTS</text>
</g>
<g id="clust6" class="cluster">
<title>cluster_TEST_APP</title>
<polygon fill="white" stroke="black" points="351.19,0 351.19,-175.5 530.19,-175.5 530.19,0 351.19,0"/>
<text xml:space="preserve" text-anchor="middle" x="440.69" y="-158.2" font-family="Times New Roman,serif" font-size="14.00">TEST_APP</text>
</g>
<g id="clust7" class="cluster">
<title>cluster_legend</title>
<polygon fill="lightyellow" stroke="black" points="0,-896.62 0,-1084.88 213.38,-1084.88 213.38,-896.62 0,-896.62"/>
<text xml:space="preserve" text-anchor="middle" x="106.69" y="-1071.38" font-family="Times New Roman,serif" font-size="10.00">Legend</text>
</g>
<!-- SERIAL_PORT_make -->
<g id="node1" class="node">
<title>SERIAL_PORT_make</title>
<polygon fill="palegreen" stroke="black" points="468.69,-308.5 414.69,-308.5 414.69,-272.5 468.69,-272.5 468.69,-308.5"/>
<text xml:space="preserve" text-anchor="middle" x="441.69" y="-286.62" font-family="Times New Roman,serif" font-size="10.00">make</text>
</g>
<!-- SERIAL_PORT_port_name -->
<g id="node2" class="node">
<title>SERIAL_PORT_port_name</title>
<polygon fill="lightgray" stroke="black" points="269.44,-776.5 209.94,-776.5 209.94,-740.5 269.44,-740.5 269.44,-776.5"/>
<text xml:space="preserve" text-anchor="middle" x="239.69" y="-754.62" font-family="Times New Roman,serif" font-size="10.00">port_name</text>
</g>
<!-- SERIAL_PORT_config -->
<g id="node3" class="node">
<title>SERIAL_PORT_config</title>
<polygon fill="lightgray" stroke="black" points="450.69,-788.5 396.69,-788.5 396.69,-752.5 450.69,-752.5 450.69,-788.5"/>
<text xml:space="preserve" text-anchor="middle" x="423.69" y="-766.62" font-family="Times New Roman,serif" font-size="10.00">config</text>
</g>
<!-- SERIAL_PORT_last_error -->
<g id="node4" class="node">
<title>SERIAL_PORT_last_error</title>
<polygon fill="lightgray" stroke="black" points="528.81,-788.5 474.56,-788.5 474.56,-752.5 528.81,-752.5 528.81,-788.5"/>
<text xml:space="preserve" text-anchor="middle" x="501.69" y="-766.62" font-family="Times New Roman,serif" font-size="10.00">last_error</text>
</g>
<!-- SERIAL_PORT_last_read_count -->
<g id="node5" class="node">
<title>SERIAL_PORT_last_read_count</title>
<polygon fill="lightgray" stroke="black" points="603.31,-608.5 522.06,-608.5 522.06,-572.5 603.31,-572.5 603.31,-608.5"/>
<text xml:space="preserve" text-anchor="middle" x="562.69" y="-586.62" font-family="Times New Roman,serif" font-size="10.00">last_read_count</text>
</g>
<!-- SERIAL_PORT_last_write_count -->
<g id="node6" class="node">
<title>SERIAL_PORT_last_write_count</title>
<polygon fill="lightgray" stroke="black" points="469.19,-728.5 384.19,-728.5 384.19,-692.5 469.19,-692.5 469.19,-728.5"/>
<text xml:space="preserve" text-anchor="middle" x="426.69" y="-706.63" font-family="Times New Roman,serif" font-size="10.00">last_write_count</text>
</g>
<!-- SERIAL_PORT_is_open -->
<g id="node7" class="node">
<title>SERIAL_PORT_is_open</title>
<polygon fill="lightcoral" stroke="black" points="132.69,-596.5 78.69,-596.5 78.69,-560.5 132.69,-560.5 132.69,-596.5"/>
<text xml:space="preserve" text-anchor="middle" x="105.69" y="-574.62" font-family="Times New Roman,serif" font-size="10.00">is_open</text>
</g>
<!-- SERIAL_PORT_open -->
<g id="node8" class="node">
<title>SERIAL_PORT_open</title>
<polygon fill="khaki" stroke="black" points="648.69,-488.5 594.69,-488.5 594.69,-452.5 648.69,-452.5 648.69,-488.5"/>
<text xml:space="preserve" text-anchor="middle" x="621.69" y="-466.62" font-family="Times New Roman,serif" font-size="10.00">open</text>
</g>
<!-- SERIAL_PORT_open_with_config -->
<g id="node9" class="node">
<title>SERIAL_PORT_open_with_config</title>
<polygon fill="palegreen" stroke="black" points="583.56,-728.5 491.81,-728.5 491.81,-692.5 583.56,-692.5 583.56,-728.5"/>
<text xml:space="preserve" text-anchor="middle" x="537.69" y="-706.63" font-family="Times New Roman,serif" font-size="10.00">open_with_config</text>
</g>
<!-- SERIAL_PORT_close -->
<g id="node10" class="node">
<title>SERIAL_PORT_close</title>
<polygon fill="palegreen" stroke="black" points="642.69,-428.5 588.69,-428.5 588.69,-392.5 642.69,-392.5 642.69,-428.5"/>
<text xml:space="preserve" text-anchor="middle" x="615.69" y="-406.62" font-family="Times New Roman,serif" font-size="10.00">close</text>
</g>
<!-- SERIAL_PORT_read_bytes -->
<g id="node11" class="node">
<title>SERIAL_PORT_read_bytes</title>
<polygon fill="palegreen" stroke="black" points="186.81,-782.5 126.56,-782.5 126.56,-746.5 186.81,-746.5 186.81,-782.5"/>
<text xml:space="preserve" text-anchor="middle" x="156.69" y="-760.63" font-family="Times New Roman,serif" font-size="10.00">read_bytes</text>
</g>
<!-- SERIAL_PORT_read_string -->
<g id="node12" class="node">
<title>SERIAL_PORT_read_string</title>
<polygon fill="palegreen" stroke="black" points="193.56,-368.5 131.81,-368.5 131.81,-332.5 193.56,-332.5 193.56,-368.5"/>
<text xml:space="preserve" text-anchor="middle" x="162.69" y="-346.62" font-family="Times New Roman,serif" font-size="10.00">read_string</text>
</g>
<!-- SERIAL_PORT_read_line -->
<g id="node13" class="node">
<title>SERIAL_PORT_read_line</title>
<polygon fill="palegreen" stroke="black" points="606.81,-788.5 552.56,-788.5 552.56,-752.5 606.81,-752.5 606.81,-788.5"/>
<text xml:space="preserve" text-anchor="middle" x="579.69" y="-766.62" font-family="Times New Roman,serif" font-size="10.00">read_line</text>
</g>
<!-- SERIAL_PORT_write_bytes -->
<g id="node14" class="node">
<title>SERIAL_PORT_write_bytes</title>
<polygon fill="palegreen" stroke="black" points="280.69,-368.5 216.69,-368.5 216.69,-332.5 280.69,-332.5 280.69,-368.5"/>
<text xml:space="preserve" text-anchor="middle" x="248.69" y="-346.62" font-family="Times New Roman,serif" font-size="10.00">write_bytes</text>
</g>
<!-- SERIAL_PORT_write_string -->
<g id="node15" class="node">
<title>SERIAL_PORT_write_string</title>
<polygon fill="palegreen" stroke="black" points="599.44,-368.5 533.94,-368.5 533.94,-332.5 599.44,-332.5 599.44,-368.5"/>
<text xml:space="preserve" text-anchor="middle" x="566.69" y="-346.62" font-family="Times New Roman,serif" font-size="10.00">write_string</text>
</g>
<!-- SERIAL_PORT_write_line -->
<g id="node16" class="node">
<title>SERIAL_PORT_write_line</title>
<polygon fill="khaki" stroke="black" points="172.69,-428.5 114.69,-428.5 114.69,-392.5 172.69,-392.5 172.69,-428.5"/>
<text xml:space="preserve" text-anchor="middle" x="143.69" y="-406.62" font-family="Times New Roman,serif" font-size="10.00">write_line</text>
</g>
<!-- SERIAL_PORT_bytes_available -->
<g id="node17" class="node">
<title>SERIAL_PORT_bytes_available</title>
<polygon fill="palegreen" stroke="black" points="416.94,-368.5 336.44,-368.5 336.44,-332.5 416.94,-332.5 416.94,-368.5"/>
<text xml:space="preserve" text-anchor="middle" x="376.69" y="-346.62" font-family="Times New Roman,serif" font-size="10.00">bytes_available</text>
</g>
<!-- SERIAL_PORT_has_data -->
<g id="node18" class="node">
<title>SERIAL_PORT_has_data</title>
<polygon fill="khaki" stroke="black" points="618.69,-548.5 564.69,-548.5 564.69,-512.5 618.69,-512.5 618.69,-548.5"/>
<text xml:space="preserve" text-anchor="middle" x="591.69" y="-526.62" font-family="Times New Roman,serif" font-size="10.00">has_data</text>
</g>
<!-- SERIAL_PORT_set_dtr -->
<g id="node19" class="node">
<title>SERIAL_PORT_set_dtr</title>
<polygon fill="khaki" stroke="black" points="180.69,-488.5 126.69,-488.5 126.69,-452.5 180.69,-452.5 180.69,-488.5"/>
<text xml:space="preserve" text-anchor="middle" x="153.69" y="-466.62" font-family="Times New Roman,serif" font-size="10.00">set_dtr</text>
</g>
<!-- SERIAL_PORT_set_rts -->
<g id="node20" class="node">
<title>SERIAL_PORT_set_rts</title>
<polygon fill="khaki" stroke="black" points="390.69,-308.5 336.69,-308.5 336.69,-272.5 390.69,-272.5 390.69,-308.5"/>
<text xml:space="preserve" text-anchor="middle" x="363.69" y="-286.62" font-family="Times New Roman,serif" font-size="10.00">set_rts</text>
</g>
<!-- SERIAL_PORT_flush -->
<g id="node21" class="node">
<title>SERIAL_PORT_flush</title>
<polygon fill="khaki" stroke="black" points="624.69,-668.5 570.69,-668.5 570.69,-632.5 624.69,-632.5 624.69,-668.5"/>
<text xml:space="preserve" text-anchor="middle" x="597.69" y="-646.62" font-family="Times New Roman,serif" font-size="10.00">flush</text>
</g>
<!-- SERIAL_PORT_purge_input -->
<g id="node22" class="node">
<title>SERIAL_PORT_purge_input</title>
<polygon fill="khaki" stroke="black" points="360.81,-776.5 294.56,-776.5 294.56,-740.5 360.81,-740.5 360.81,-776.5"/>
<text xml:space="preserve" text-anchor="middle" x="327.69" y="-754.62" font-family="Times New Roman,serif" font-size="10.00">purge_input</text>
</g>
<!-- SERIAL_PORT_purge_output -->
<g id="node23" class="node">
<title>SERIAL_PORT_purge_output</title>
<polygon fill="khaki" stroke="black" points="509.44,-368.5 437.94,-368.5 437.94,-332.5 509.44,-332.5 509.44,-368.5"/>
<text xml:space="preserve" text-anchor="middle" x="473.69" y="-346.62" font-family="Times New Roman,serif" font-size="10.00">purge_output</text>
</g>
<!-- SERIAL_PORT_handle -->
<g id="node24" class="node">
<title>SERIAL_PORT_handle</title>
<polygon fill="lightgray" stroke="black" points="168.69,-722.5 114.69,-722.5 114.69,-686.5 168.69,-686.5 168.69,-722.5"/>
<text xml:space="preserve" text-anchor="middle" x="141.69" y="-700.62" font-family="Times New Roman,serif" font-size="10.00">handle</text>
</g>
<!-- SERIAL_PORT_Invalid_handle -->
<g id="node25" class="node">
<title>SERIAL_PORT_Invalid_handle</title>
<polygon fill="lightcoral" stroke="black" points="216.81,-656.5 138.56,-656.5 138.56,-620.5 216.81,-620.5 216.81,-656.5"/>
<text xml:space="preserve" text-anchor="middle" x="177.69" y="-634.63" font-family="Times New Roman,serif" font-size="10.00">Invalid_handle</text>
</g>
<!-- SERIAL_PORT_windows_port_path -->
<g id="node26" class="node">
<title>SERIAL_PORT_windows_port_path</title>
<polygon fill="lightcoral" stroke="black" points="566.94,-428.5 468.44,-428.5 468.44,-392.5 566.94,-392.5 566.94,-428.5"/>
<text xml:space="preserve" text-anchor="middle" x="517.69" y="-406.62" font-family="Times New Roman,serif" font-size="10.00">windows_port_path</text>
</g>
<!-- SERIAL_PORT_c_invalid_handle -->
<g id="node27" class="node">
<title>SERIAL_PORT_c_invalid_handle</title>
<polygon fill="lightcoral" stroke="black" points="244.69,-548.5 156.69,-548.5 156.69,-512.5 244.69,-512.5 244.69,-548.5"/>
<text xml:space="preserve" text-anchor="middle" x="200.69" y="-526.62" font-family="Times New Roman,serif" font-size="10.00">c_invalid_handle</text>
</g>
<!-- SERIAL_PORT_c_open_port_windows -->
<g id="node28" class="node">
<title>SERIAL_PORT_c_open_port_windows</title>
<polygon fill="lightcoral" stroke="black" points="410.94,-668.5 300.44,-668.5 300.44,-632.5 410.94,-632.5 410.94,-668.5"/>
<text xml:space="preserve" text-anchor="middle" x="355.69" y="-646.62" font-family="Times New Roman,serif" font-size="10.00">c_open_port_windows</text>
</g>
<!-- SERIAL_PORT_c_close_port_windows -->
<g id="node29" class="node">
<title>SERIAL_PORT_c_close_port_windows</title>
<polygon fill="lightcoral" stroke="black" points="351.31,-608.5 240.06,-608.5 240.06,-572.5 351.31,-572.5 351.31,-608.5"/>
<text xml:space="preserve" text-anchor="middle" x="295.69" y="-586.62" font-family="Times New Roman,serif" font-size="10.00">c_close_port_windows</text>
</g>
<!-- SERIAL_PORT_c_configure_port_windows -->
<g id="node30" class="node">
<title>SERIAL_PORT_c_configure_port_windows</title>
<polygon fill="lightcoral" stroke="black" points="501.31,-608.5 372.06,-608.5 372.06,-572.5 501.31,-572.5 501.31,-608.5"/>
<text xml:space="preserve" text-anchor="middle" x="436.69" y="-586.62" font-family="Times New Roman,serif" font-size="10.00">c_configure_port_windows</text>
</g>
<!-- SERIAL_PORT_c_set_timeouts_windows -->
<g id="node31" class="node">
<title>SERIAL_PORT_c_set_timeouts_windows</title>
<polygon fill="lightcoral" stroke="black" points="456.81,-488.5 336.56,-488.5 336.56,-452.5 456.81,-452.5 456.81,-488.5"/>
<text xml:space="preserve" text-anchor="middle" x="396.69" y="-466.62" font-family="Times New Roman,serif" font-size="10.00">c_set_timeouts_windows</text>
</g>
<!-- SERIAL_PORT_c_read_port_windows -->
<g id="node32" class="node">
<title>SERIAL_PORT_c_read_port_windows</title>
<polygon fill="lightcoral" stroke="black" points="311.44,-488.5 203.94,-488.5 203.94,-452.5 311.44,-452.5 311.44,-488.5"/>
<text xml:space="preserve" text-anchor="middle" x="257.69" y="-466.62" font-family="Times New Roman,serif" font-size="10.00">c_read_port_windows</text>
</g>
<!-- SERIAL_PORT_c_write_port_windows -->
<g id="node33" class="node">
<title>SERIAL_PORT_c_write_port_windows</title>
<polygon fill="lightcoral" stroke="black" points="447.31,-428.5 336.06,-428.5 336.06,-392.5 447.31,-392.5 447.31,-428.5"/>
<text xml:space="preserve" text-anchor="middle" x="391.69" y="-406.62" font-family="Times New Roman,serif" font-size="10.00">c_write_port_windows</text>
</g>
<!-- SERIAL_PORT_c_bytes_available_windows -->
<g id="node34" class="node">
<title>SERIAL_PORT_c_bytes_available_windows</title>
<polygon fill="lightcoral" stroke="black" points="397.19,-548.5 264.19,-548.5 264.19,-512.5 397.19,-512.5 397.19,-548.5"/>
<text xml:space="preserve" text-anchor="middle" x="330.69" y="-526.62" font-family="Times New Roman,serif" font-size="10.00">c_bytes_available_windows</text>
</g>
<!-- SERIAL_PORT_c_set_dtr_windows -->
<g id="node35" class="node">
<title>SERIAL_PORT_c_set_dtr_windows</title>
<polygon fill="lightcoral" stroke="black" points="288.81,-428.5 192.56,-428.5 192.56,-392.5 288.81,-392.5 288.81,-428.5"/>
<text xml:space="preserve" text-anchor="middle" x="240.69" y="-406.62" font-family="Times New Roman,serif" font-size="10.00">c_set_dtr_windows</text>
</g>
<!-- SERIAL_PORT_c_set_rts_windows -->
<g id="node36" class="node">
<title>SERIAL_PORT_c_set_rts_windows</title>
<polygon fill="lightcoral" stroke="black" points="575.06,-488.5 480.31,-488.5 480.31,-452.5 575.06,-452.5 575.06,-488.5"/>
<text xml:space="preserve" text-anchor="middle" x="527.69" y="-466.62" font-family="Times New Roman,serif" font-size="10.00">c_set_rts_windows</text>
</g>
<!-- SERIAL_PORT_c_flush_windows -->
<g id="node37" class="node">
<title>SERIAL_PORT_c_flush_windows</title>
<polygon fill="lightcoral" stroke="black" points="281.06,-716.5 192.31,-716.5 192.31,-680.5 281.06,-680.5 281.06,-716.5"/>
<text xml:space="preserve" text-anchor="middle" x="236.69" y="-694.62" font-family="Times New Roman,serif" font-size="10.00">c_flush_windows</text>
</g>
<!-- SERIAL_PORT_c_purge_input_windows -->
<g id="node38" class="node">
<title>SERIAL_PORT_c_purge_input_windows</title>
<polygon fill="lightcoral" stroke="black" points="551.06,-668.5 432.31,-668.5 432.31,-632.5 551.06,-632.5 551.06,-668.5"/>
<text xml:space="preserve" text-anchor="middle" x="491.69" y="-646.62" font-family="Times New Roman,serif" font-size="10.00">c_purge_input_windows</text>
</g>
<!-- SERIAL_PORT_c_purge_output_windows -->
<g id="node39" class="node">
<title>SERIAL_PORT_c_purge_output_windows</title>
<polygon fill="lightcoral" stroke="black" points="544.69,-548.5 420.69,-548.5 420.69,-512.5 544.69,-512.5 544.69,-548.5"/>
<text xml:space="preserve" text-anchor="middle" x="482.69" y="-526.62" font-family="Times New Roman,serif" font-size="10.00">c_purge_output_windows</text>
</g>
<!-- SERIAL_PORT_CONFIG_make_default -->
<g id="node40" class="node">
<title>SERIAL_PORT_CONFIG_make_default</title>
<polygon fill="khaki" stroke="black" points="1151.31,-1292.5 1079.81,-1292.5 1079.81,-1256.5 1151.31,-1256.5 1151.31,-1292.5"/>
<text xml:space="preserve" text-anchor="middle" x="1115.56" y="-1270.63" font-family="Times New Roman,serif" font-size="10.00">make_default</text>
</g>
<!-- SERIAL_PORT_CONFIG_make -->
<g id="node41" class="node">
<title>SERIAL_PORT_CONFIG_make</title>
<polygon fill="palegreen" stroke="black" points="1188.56,-1178.5 1134.56,-1178.5 1134.56,-1142.5 1188.56,-1142.5 1188.56,-1178.5"/>
<text xml:space="preserve" text-anchor="middle" x="1161.56" y="-1156.62" font-family="Times New Roman,serif" font-size="10.00">make</text>
</g>
<!-- SERIAL_PORT_CONFIG_baud_rate -->
<g id="node42" class="node">
<title>SERIAL_PORT_CONFIG_baud_rate</title>
<polygon fill="lightgray" stroke="black" points="854.81,-932.5 798.31,-932.5 798.31,-896.5 854.81,-896.5 854.81,-932.5"/>
<text xml:space="preserve" text-anchor="middle" x="826.56" y="-910.63" font-family="Times New Roman,serif" font-size="10.00">baud_rate</text>
</g>
<!-- SERIAL_PORT_CONFIG_data_bits -->
<g id="node43" class="node">
<title>SERIAL_PORT_CONFIG_data_bits</title>
<polygon fill="lightgray" stroke="black" points="774.56,-932.5 720.56,-932.5 720.56,-896.5 774.56,-896.5 774.56,-932.5"/>
<text xml:space="preserve" text-anchor="middle" x="747.56" y="-910.63" font-family="Times New Roman,serif" font-size="10.00">data_bits</text>
</g>
<!-- SERIAL_PORT_CONFIG_stop_bits -->
<g id="node44" class="node">
<title>SERIAL_PORT_CONFIG_stop_bits</title>
<polygon fill="lightgray" stroke="black" points="756.56,-1040.5 702.56,-1040.5 702.56,-1004.5 756.56,-1004.5 756.56,-1040.5"/>
<text xml:space="preserve" text-anchor="middle" x="729.56" y="-1018.62" font-family="Times New Roman,serif" font-size="10.00">stop_bits</text>
</g>
<!-- SERIAL_PORT_CONFIG_parity -->
<g id="node45" class="node">
<title>SERIAL_PORT_CONFIG_parity</title>
<polygon fill="lightgray" stroke="black" points="780.56,-1334.5 726.56,-1334.5 726.56,-1298.5 780.56,-1298.5 780.56,-1334.5"/>
<text xml:space="preserve" text-anchor="middle" x="753.56" y="-1312.63" font-family="Times New Roman,serif" font-size="10.00">parity</text>
</g>
<!-- SERIAL_PORT_CONFIG_flow_control -->
<g id="node46" class="node">
<title>SERIAL_PORT_CONFIG_flow_control</title>
<polygon fill="lightgray" stroke="black" points="1191.19,-1052.5 1121.94,-1052.5 1121.94,-1016.5 1191.19,-1016.5 1191.19,-1052.5"/>
<text xml:space="preserve" text-anchor="middle" x="1156.56" y="-1030.62" font-family="Times New Roman,serif" font-size="10.00">flow_control</text>
</g>
<!-- SERIAL_PORT_CONFIG_read_timeout_ms -->
<g id="node47" class="node">
<title>SERIAL_PORT_CONFIG_read_timeout_ms</title>
<polygon fill="lightgray" stroke="black" points="998.81,-1280.5 912.31,-1280.5 912.31,-1244.5 998.81,-1244.5 998.81,-1280.5"/>
<text xml:space="preserve" text-anchor="middle" x="955.56" y="-1258.63" font-family="Times New Roman,serif" font-size="10.00">read_timeout_ms</text>
</g>
<!-- SERIAL_PORT_CONFIG_write_timeout_ms -->
<g id="node48" class="node">
<title>SERIAL_PORT_CONFIG_write_timeout_ms</title>
<polygon fill="lightgray" stroke="black" points="1110.69,-1232.5 1020.44,-1232.5 1020.44,-1196.5 1110.69,-1196.5 1110.69,-1232.5"/>
<text xml:space="preserve" text-anchor="middle" x="1065.56" y="-1210.62" font-family="Times New Roman,serif" font-size="10.00">write_timeout_ms</text>
</g>
<!-- SERIAL_PORT_CONFIG_set_baud_rate -->
<g id="node49" class="node">
<title>SERIAL_PORT_CONFIG_set_baud_rate</title>
<polygon fill="palegreen" stroke="black" points="1171.06,-1118.5 1098.06,-1118.5 1098.06,-1082.5 1171.06,-1082.5 1171.06,-1118.5"/>
<text xml:space="preserve" text-anchor="middle" x="1134.56" y="-1096.63" font-family="Times New Roman,serif" font-size="10.00">set_baud_rate</text>
</g>
<!-- SERIAL_PORT_CONFIG_set_data_bits -->
<g id="node50" class="node">
<title>SERIAL_PORT_CONFIG_set_data_bits</title>
<polygon fill="palegreen" stroke="black" points="994.56,-938.5 924.56,-938.5 924.56,-902.5 994.56,-902.5 994.56,-938.5"/>
<text xml:space="preserve" text-anchor="middle" x="959.56" y="-916.63" font-family="Times New Roman,serif" font-size="10.00">set_data_bits</text>
</g>
<!-- SERIAL_PORT_CONFIG_set_stop_bits -->
<g id="node51" class="node">
<title>SERIAL_PORT_CONFIG_set_stop_bits</title>
<polygon fill="palegreen" stroke="black" points="820.56,-1100.5 750.56,-1100.5 750.56,-1064.5 820.56,-1064.5 820.56,-1100.5"/>
<text xml:space="preserve" text-anchor="middle" x="785.56" y="-1078.63" font-family="Times New Roman,serif" font-size="10.00">set_stop_bits</text>
</g>
<!-- SERIAL_PORT_CONFIG_set_parity -->
<g id="node52" class="node">
<title>SERIAL_PORT_CONFIG_set_parity</title>
<polygon fill="palegreen" stroke="black" points="1196.81,-1352.5 1140.31,-1352.5 1140.31,-1316.5 1196.81,-1316.5 1196.81,-1352.5"/>
<text xml:space="preserve" text-anchor="middle" x="1168.56" y="-1330.63" font-family="Times New Roman,serif" font-size="10.00">set_parity</text>
</g>
<!-- SERIAL_PORT_CONFIG_set_flow_control -->
<g id="node53" class="node">
<title>SERIAL_PORT_CONFIG_set_flow_control</title>
<polygon fill="palegreen" stroke="black" points="889.44,-1280.5 803.69,-1280.5 803.69,-1244.5 889.44,-1244.5 889.44,-1280.5"/>
<text xml:space="preserve" text-anchor="middle" x="846.56" y="-1258.63" font-family="Times New Roman,serif" font-size="10.00">set_flow_control</text>
</g>
<!-- SERIAL_PORT_CONFIG_set_read_timeout -->
<g id="node54" class="node">
<title>SERIAL_PORT_CONFIG_set_read_timeout</title>
<polygon fill="palegreen" stroke="black" points="1154.81,-992.5 1068.31,-992.5 1068.31,-956.5 1154.81,-956.5 1154.81,-992.5"/>
<text xml:space="preserve" text-anchor="middle" x="1111.56" y="-970.63" font-family="Times New Roman,serif" font-size="10.00">set_read_timeout</text>
</g>
<!-- SERIAL_PORT_CONFIG_set_write_timeout -->
<g id="node55" class="node">
<title>SERIAL_PORT_CONFIG_set_write_timeout</title>
<polygon fill="palegreen" stroke="black" points="1044.69,-998.5 954.44,-998.5 954.44,-962.5 1044.69,-962.5 1044.69,-998.5"/>
<text xml:space="preserve" text-anchor="middle" x="999.56" y="-976.63" font-family="Times New Roman,serif" font-size="10.00">set_write_timeout</text>
</g>
<!-- SERIAL_PORT_CONFIG_is_valid_baud_rate -->
<g id="node56" class="node">
<title>SERIAL_PORT_CONFIG_is_valid_baud_rate</title>
<polygon fill="lightcoral" stroke="black" points="934.94,-1052.5 840.19,-1052.5 840.19,-1016.5 934.94,-1016.5 934.94,-1052.5"/>
<text xml:space="preserve" text-anchor="middle" x="887.56" y="-1030.62" font-family="Times New Roman,serif" font-size="10.00">is_valid_baud_rate</text>
</g>
<!-- SERIAL_PORT_CONFIG_Stop_bits_one -->
<g id="node57" class="node">
<title>SERIAL_PORT_CONFIG_Stop_bits_one</title>
<polygon fill="lightgray" stroke="black" points="843.19,-1160.5 767.94,-1160.5 767.94,-1124.5 843.19,-1124.5 843.19,-1160.5"/>
<text xml:space="preserve" text-anchor="middle" x="805.56" y="-1138.62" font-family="Times New Roman,serif" font-size="10.00">Stop_bits_one</text>
</g>
<!-- SERIAL_PORT_CONFIG_Stop_bits_one_five -->
<g id="node58" class="node">
<title>SERIAL_PORT_CONFIG_Stop_bits_one_five</title>
<polygon fill="lightgray" stroke="black" points="936.69,-1220.5 840.44,-1220.5 840.44,-1184.5 936.69,-1184.5 936.69,-1220.5"/>
<text xml:space="preserve" text-anchor="middle" x="888.56" y="-1198.63" font-family="Times New Roman,serif" font-size="10.00">Stop_bits_one_five</text>
</g>
<!-- SERIAL_PORT_CONFIG_Stop_bits_two -->
<g id="node59" class="node">
<title>SERIAL_PORT_CONFIG_Stop_bits_two</title>
<polygon fill="lightgray" stroke="black" points="856.56,-992.5 780.56,-992.5 780.56,-956.5 856.56,-956.5 856.56,-992.5"/>
<text xml:space="preserve" text-anchor="middle" x="818.56" y="-970.63" font-family="Times New Roman,serif" font-size="10.00">Stop_bits_two</text>
</g>
<!-- SERIAL_PORT_CONFIG_Parity_none -->
<g id="node60" class="node">
<title>SERIAL_PORT_CONFIG_Parity_none</title>
<polygon fill="lightgray" stroke="black" points="1055.31,-1340.5 989.81,-1340.5 989.81,-1304.5 1055.31,-1304.5 1055.31,-1340.5"/>
<text xml:space="preserve" text-anchor="middle" x="1022.56" y="-1318.62" font-family="Times New Roman,serif" font-size="10.00">Parity_none</text>
</g>
<!-- SERIAL_PORT_CONFIG_Parity_odd -->
<g id="node61" class="node">
<title>SERIAL_PORT_CONFIG_Parity_odd</title>
<polygon fill="lightgray" stroke="black" points="967.06,-1340.5 906.06,-1340.5 906.06,-1304.5 967.06,-1304.5 967.06,-1340.5"/>
<text xml:space="preserve" text-anchor="middle" x="936.56" y="-1318.62" font-family="Times New Roman,serif" font-size="10.00">Parity_odd</text>
</g>
<!-- SERIAL_PORT_CONFIG_Parity_even -->
<g id="node62" class="node">
<title>SERIAL_PORT_CONFIG_Parity_even</title>
<polygon fill="lightgray" stroke="black" points="1078.94,-932.5 1014.19,-932.5 1014.19,-896.5 1078.94,-896.5 1078.94,-932.5"/>
<text xml:space="preserve" text-anchor="middle" x="1046.56" y="-910.63" font-family="Times New Roman,serif" font-size="10.00">Parity_even</text>
</g>
<!-- SERIAL_PORT_CONFIG_Parity_mark -->
<g id="node63" class="node">
<title>SERIAL_PORT_CONFIG_Parity_mark</title>
<polygon fill="lightgray" stroke="black" points="1163.31,-932.5 1097.81,-932.5 1097.81,-896.5 1163.31,-896.5 1163.31,-932.5"/>
<text xml:space="preserve" text-anchor="middle" x="1130.56" y="-910.63" font-family="Times New Roman,serif" font-size="10.00">Parity_mark</text>
</g>
<!-- SERIAL_PORT_CONFIG_Parity_space -->
<g id="node64" class="node">
<title>SERIAL_PORT_CONFIG_Parity_space</title>
<polygon fill="lightgray" stroke="black" points="817.44,-1220.5 749.69,-1220.5 749.69,-1184.5 817.44,-1184.5 817.44,-1220.5"/>
<text xml:space="preserve" text-anchor="middle" x="783.56" y="-1198.63" font-family="Times New Roman,serif" font-size="10.00">Parity_space</text>
</g>
<!-- SERIAL_PORT_CONFIG_Flow_control_none -->
<g id="node65" class="node">
<title>SERIAL_PORT_CONFIG_Flow_control_none</title>
<polygon fill="lightgray" stroke="black" points="1099.06,-1058.5 1002.06,-1058.5 1002.06,-1022.5 1099.06,-1022.5 1099.06,-1058.5"/>
<text xml:space="preserve" text-anchor="middle" x="1050.56" y="-1036.63" font-family="Times New Roman,serif" font-size="10.00">Flow_control_none</text>
</g>
<!-- SERIAL_PORT_CONFIG_Flow_control_hardware -->
<g id="node66" class="node">
<title>SERIAL_PORT_CONFIG_Flow_control_hardware</title>
<polygon fill="lightgray" stroke="black" points="1074.69,-1172.5 960.44,-1172.5 960.44,-1136.5 1074.69,-1136.5 1074.69,-1172.5"/>
<text xml:space="preserve" text-anchor="middle" x="1017.56" y="-1150.63" font-family="Times New Roman,serif" font-size="10.00">Flow_control_hardware</text>
</g>
<!-- SERIAL_PORT_CONFIG_Flow_control_xon_xoff -->
<g id="node67" class="node">
<title>SERIAL_PORT_CONFIG_Flow_control_xon_xoff</title>
<polygon fill="lightgray" stroke="black" points="978.69,-1112.5 864.44,-1112.5 864.44,-1076.5 978.69,-1076.5 978.69,-1112.5"/>
<text xml:space="preserve" text-anchor="middle" x="921.56" y="-1090.63" font-family="Times New Roman,serif" font-size="10.00">Flow_control_xon_xoff</text>
</g>
<!-- SERIAL_PORT_CONFIG_description -->
<g id="node68" class="node">
<title>SERIAL_PORT_CONFIG_description</title>
<polygon fill="lightcoral" stroke="black" points="883.44,-1340.5 821.69,-1340.5 821.69,-1304.5 883.44,-1304.5 883.44,-1340.5"/>
<text xml:space="preserve" text-anchor="middle" x="852.56" y="-1318.62" font-family="Times New Roman,serif" font-size="10.00">description</text>
</g>
<!-- SERIAL_PORT_ENUMERATOR_make -->
<g id="node69" class="node">
<title>SERIAL_PORT_ENUMERATOR_make</title>
<polygon fill="lightcoral" stroke="black" points="873.63,-191.5 819.63,-191.5 819.63,-155.5 873.63,-155.5 873.63,-191.5"/>
<text xml:space="preserve" text-anchor="middle" x="846.63" y="-169.62" font-family="Times New Roman,serif" font-size="10.00">make</text>
</g>
<!-- SERIAL_PORT_ENUMERATOR_available_ports -->
<g id="node70" class="node">
<title>SERIAL_PORT_ENUMERATOR_available_ports</title>
<polygon fill="lightgray" stroke="black" points="958.13,-467.5 879.13,-467.5 879.13,-431.5 958.13,-431.5 958.13,-467.5"/>
<text xml:space="preserve" text-anchor="middle" x="918.63" y="-445.62" font-family="Times New Roman,serif" font-size="10.00">available_ports</text>
</g>
<!-- SERIAL_PORT_ENUMERATOR_port_descriptions -->
<g id="node71" class="node">
<title>SERIAL_PORT_ENUMERATOR_port_descriptions</title>
<polygon fill="lightgray" stroke="black" points="900.25,-407.5 813,-407.5 813,-371.5 900.25,-371.5 900.25,-407.5"/>
<text xml:space="preserve" text-anchor="middle" x="856.63" y="-385.62" font-family="Times New Roman,serif" font-size="10.00">port_descriptions</text>
</g>
<!-- SERIAL_PORT_ENUMERATOR_description_for -->
<g id="node72" class="node">
<title>SERIAL_PORT_ENUMERATOR_description_for</title>
<polygon fill="lightcoral" stroke="black" points="1059.75,-431.5 981.5,-431.5 981.5,-395.5 1059.75,-395.5 1059.75,-431.5"/>
<text xml:space="preserve" text-anchor="middle" x="1020.63" y="-409.62" font-family="Times New Roman,serif" font-size="10.00">description_for</text>
</g>
<!-- SERIAL_PORT_ENUMERATOR_count -->
<g id="node73" class="node">
<title>SERIAL_PORT_ENUMERATOR_count</title>
<polygon fill="lightcoral" stroke="black" points="795.63,-191.5 741.63,-191.5 741.63,-155.5 795.63,-155.5 795.63,-191.5"/>
<text xml:space="preserve" text-anchor="middle" x="768.63" y="-169.62" font-family="Times New Roman,serif" font-size="10.00">count</text>
</g>
<!-- SERIAL_PORT_ENUMERATOR_has_ports -->
<g id="node74" class="node">
<title>SERIAL_PORT_ENUMERATOR_has_ports</title>
<polygon fill="lightcoral" stroke="black" points="1036.12,-197.5 981.12,-197.5 981.12,-161.5 1036.12,-161.5 1036.12,-197.5"/>
<text xml:space="preserve" text-anchor="middle" x="1008.62" y="-175.62" font-family="Times New Roman,serif" font-size="10.00">has_ports</text>
</g>
<!-- SERIAL_PORT_ENUMERATOR_has_port -->
<g id="node75" class="node">
<title>SERIAL_PORT_ENUMERATOR_has_port</title>
<polygon fill="lightcoral" stroke="black" points="801.63,-347.5 747.63,-347.5 747.63,-311.5 801.63,-311.5 801.63,-347.5"/>
<text xml:space="preserve" text-anchor="middle" x="774.63" y="-325.62" font-family="Times New Roman,serif" font-size="10.00">has_port</text>
</g>
<!-- SERIAL_PORT_ENUMERATOR_bluetooth_ports -->
<g id="node76" class="node">
<title>SERIAL_PORT_ENUMERATOR_bluetooth_ports</title>
<polygon fill="lightcoral" stroke="black" points="882.25,-251.5 801,-251.5 801,-215.5 882.25,-215.5 882.25,-251.5"/>
<text xml:space="preserve" text-anchor="middle" x="841.63" y="-229.62" font-family="Times New Roman,serif" font-size="10.00">bluetooth_ports</text>
</g>
<!-- SERIAL_PORT_ENUMERATOR_usb_ports -->
<g id="node77" class="node">
<title>SERIAL_PORT_ENUMERATOR_usb_ports</title>
<polygon fill="lightcoral" stroke="black" points="856.5,-467.5 800.75,-467.5 800.75,-431.5 856.5,-431.5 856.5,-467.5"/>
<text xml:space="preserve" text-anchor="middle" x="828.63" y="-445.62" font-family="Times New Roman,serif" font-size="10.00">usb_ports</text>
</g>
<!-- SERIAL_PORT_ENUMERATOR_refresh -->
<g id="node78" class="node">
<title>SERIAL_PORT_ENUMERATOR_refresh</title>
<polygon fill="lightcoral" stroke="black" points="957.63,-197.5 903.63,-197.5 903.63,-161.5 957.63,-161.5 957.63,-197.5"/>
<text xml:space="preserve" text-anchor="middle" x="930.63" y="-175.62" font-family="Times New Roman,serif" font-size="10.00">refresh</text>
</g>
<!-- SERIAL_PORT_ENUMERATOR_scan_windows_ports -->
<g id="node79" class="node">
<title>SERIAL_PORT_ENUMERATOR_scan_windows_ports</title>
<polygon fill="lightcoral" stroke="black" points="1023.75,-371.5 921.5,-371.5 921.5,-335.5 1023.75,-335.5 1023.75,-371.5"/>
<text xml:space="preserve" text-anchor="middle" x="972.63" y="-349.62" font-family="Times New Roman,serif" font-size="10.00">scan_windows_ports</text>
</g>
<!-- SERIAL_PORT_ENUMERATOR_c_port_exists_windows -->
<g id="node80" class="node">
<title>SERIAL_PORT_ENUMERATOR_c_port_exists_windows</title>
<polygon fill="lightcoral" stroke="black" points="938.38,-311.5 824.88,-311.5 824.88,-275.5 938.38,-275.5 938.38,-311.5"/>
<text xml:space="preserve" text-anchor="middle" x="881.63" y="-289.62" font-family="Times New Roman,serif" font-size="10.00">c_port_exists_windows</text>
</g>
<!-- SERIAL_PORT_ENUMERATOR_scan_unix_ports -->
<g id="node81" class="node">
<title>SERIAL_PORT_ENUMERATOR_scan_unix_ports</title>
<polygon fill="lightcoral" stroke="black" points="1046.38,-257.5 962.88,-257.5 962.88,-221.5 1046.38,-221.5 1046.38,-257.5"/>
<text xml:space="preserve" text-anchor="middle" x="1004.62" y="-235.62" font-family="Times New Roman,serif" font-size="10.00">scan_unix_ports</text>
</g>
<!-- SIMPLE_SERIAL_open_port -->
<g id="node82" class="node">
<title>SIMPLE_SERIAL_open_port</title>
<polygon fill="palegreen" stroke="black" points="371.12,-1142.5 313.12,-1142.5 313.12,-1106.5 371.12,-1106.5 371.12,-1142.5"/>
<text xml:space="preserve" text-anchor="middle" x="342.12" y="-1120.62" font-family="Times New Roman,serif" font-size="10.00">open_port</text>
</g>
<!-- SIMPLE_SERIAL_open_port_with_config -->
<g id="node83" class="node">
<title>SIMPLE_SERIAL_open_port_with_config</title>
<polygon fill="palegreen" stroke="black" points="509.88,-1052.5 396.38,-1052.5 396.38,-1016.5 509.88,-1016.5 509.88,-1052.5"/>
<text xml:space="preserve" text-anchor="middle" x="453.13" y="-1030.62" font-family="Times New Roman,serif" font-size="10.00">open_port_with_config</text>
</g>
<!-- SIMPLE_SERIAL_create_port -->
<g id="node84" class="node">
<title>SIMPLE_SERIAL_create_port</title>
<polygon fill="palegreen" stroke="black" points="374,-1082.5 312.25,-1082.5 312.25,-1046.5 374,-1046.5 374,-1082.5"/>
<text xml:space="preserve" text-anchor="middle" x="343.12" y="-1060.63" font-family="Times New Roman,serif" font-size="10.00">create_port</text>
</g>
<!-- SIMPLE_SERIAL_default_config -->
<g id="node85" class="node">
<title>SIMPLE_SERIAL_default_config</title>
<polygon fill="lightcoral" stroke="black" points="629.12,-1172.5 553.12,-1172.5 553.12,-1136.5 629.12,-1136.5 629.12,-1172.5"/>
<text xml:space="preserve" text-anchor="middle" x="591.12" y="-1150.63" font-family="Times New Roman,serif" font-size="10.00">default_config</text>
</g>
<!-- SIMPLE_SERIAL_config_9600 -->
<g id="node86" class="node">
<title>SIMPLE_SERIAL_config_9600</title>
<polygon fill="lightcoral" stroke="black" points="543.38,-938.5 474.88,-938.5 474.88,-902.5 543.38,-902.5 543.38,-938.5"/>
<text xml:space="preserve" text-anchor="middle" x="509.12" y="-916.63" font-family="Times New Roman,serif" font-size="10.00">config_9600</text>
</g>
<!-- SIMPLE_SERIAL_config_115200 -->
<g id="node87" class="node">
<title>SIMPLE_SERIAL_config_115200</title>
<polygon fill="lightcoral" stroke="black" points="451.25,-992.5 373,-992.5 373,-956.5 451.25,-956.5 451.25,-992.5"/>
<text xml:space="preserve" text-anchor="middle" x="412.13" y="-970.63" font-family="Times New Roman,serif" font-size="10.00">config_115200</text>
</g>
<!-- SIMPLE_SERIAL_available_ports -->
<g id="node88" class="node">
<title>SIMPLE_SERIAL_available_ports</title>
<polygon fill="lightcoral" stroke="black" points="613.62,-998.5 534.62,-998.5 534.62,-962.5 613.62,-962.5 613.62,-998.5"/>
<text xml:space="preserve" text-anchor="middle" x="574.12" y="-976.63" font-family="Times New Roman,serif" font-size="10.00">available_ports</text>
</g>
<!-- SIMPLE_SERIAL_bluetooth_ports -->
<g id="node89" class="node">
<title>SIMPLE_SERIAL_bluetooth_ports</title>
<polygon fill="lightcoral" stroke="black" points="471.75,-1142.5 390.5,-1142.5 390.5,-1106.5 471.75,-1106.5 471.75,-1142.5"/>
<text xml:space="preserve" text-anchor="middle" x="431.12" y="-1120.62" font-family="Times New Roman,serif" font-size="10.00">bluetooth_ports</text>
</g>
<!-- SIMPLE_SERIAL_usb_ports -->
<g id="node90" class="node">
<title>SIMPLE_SERIAL_usb_ports</title>
<polygon fill="lightcoral" stroke="black" points="368,-932.5 312.25,-932.5 312.25,-896.5 368,-896.5 368,-932.5"/>
<text xml:space="preserve" text-anchor="middle" x="340.13" y="-910.63" font-family="Times New Roman,serif" font-size="10.00">usb_ports</text>
</g>
<!-- SIMPLE_SERIAL_port_exists -->
<g id="node91" class="node">
<title>SIMPLE_SERIAL_port_exists</title>
<polygon fill="lightcoral" stroke="black" points="625.62,-938.5 564.62,-938.5 564.62,-902.5 625.62,-902.5 625.62,-938.5"/>
<text xml:space="preserve" text-anchor="middle" x="595.12" y="-916.63" font-family="Times New Roman,serif" font-size="10.00">port_exists</text>
</g>
<!-- SIMPLE_SERIAL_port_anchor -->
<g id="node92" class="node">
<title>SIMPLE_SERIAL_port_anchor</title>
<polygon fill="lightgray" stroke="black" points="431.88,-1202.5 366.38,-1202.5 366.38,-1166.5 431.88,-1166.5 431.88,-1202.5"/>
<text xml:space="preserve" text-anchor="middle" x="399.13" y="-1180.62" font-family="Times New Roman,serif" font-size="10.00">port_anchor</text>
</g>
<!-- SIMPLE_SERIAL_config_anchor -->
<g id="node93" class="node">
<title>SIMPLE_SERIAL_config_anchor</title>
<polygon fill="lightgray" stroke="black" points="531.75,-1202.5 456.5,-1202.5 456.5,-1166.5 531.75,-1166.5 531.75,-1202.5"/>
<text xml:space="preserve" text-anchor="middle" x="494.12" y="-1180.62" font-family="Times New Roman,serif" font-size="10.00">config_anchor</text>
</g>
<!-- SIMPLE_SERIAL_enumerator_anchor -->
<g id="node94" class="node">
<title>SIMPLE_SERIAL_enumerator_anchor</title>
<polygon fill="lightgray" stroke="black" points="587.5,-1112.5 492.75,-1112.5 492.75,-1076.5 587.5,-1076.5 587.5,-1112.5"/>
<text xml:space="preserve" text-anchor="middle" x="540.12" y="-1090.63" font-family="Times New Roman,serif" font-size="10.00">enumerator_anchor</text>
</g>
<!-- LIB_TESTS_test_config_default -->
<g id="node95" class="node">
<title>LIB_TESTS_test_config_default</title>
<polygon fill="lightcoral" stroke="black" points="996.62,-788.5 901.12,-788.5 901.12,-752.5 996.62,-752.5 996.62,-788.5"/>
<text xml:space="preserve" text-anchor="middle" x="948.87" y="-766.62" font-family="Times New Roman,serif" font-size="10.00">test_config_default</text>
</g>
<!-- LIB_TESTS_test_config_builder -->
<g id="node96" class="node">
<title>LIB_TESTS_test_config_builder</title>
<polygon fill="lightcoral" stroke="black" points="984,-676.5 887.75,-676.5 887.75,-640.5 984,-640.5 984,-676.5"/>
<text xml:space="preserve" text-anchor="middle" x="935.87" y="-654.62" font-family="Times New Roman,serif" font-size="10.00">test_config_builder</text>
</g>
<!-- LIB_TESTS_test_config_description -->
<g id="node97" class="node">
<title>LIB_TESTS_test_config_description</title>
<polygon fill="lightcoral" stroke="black" points="958.25,-732.5 845.5,-732.5 845.5,-696.5 958.25,-696.5 958.25,-732.5"/>
<text xml:space="preserve" text-anchor="middle" x="901.88" y="-710.62" font-family="Times New Roman,serif" font-size="10.00">test_config_description</text>
</g>
<!-- LIB_TESTS_test_enumerator_creation -->
<g id="node98" class="node">
<title>LIB_TESTS_test_enumerator_creation</title>
<polygon fill="lightcoral" stroke="black" points="866.62,-676.5 747.12,-676.5 747.12,-640.5 866.62,-640.5 866.62,-676.5"/>
<text xml:space="preserve" text-anchor="middle" x="806.88" y="-654.62" font-family="Times New Roman,serif" font-size="10.00">test_enumerator_creation</text>
</g>
<!-- LIB_TESTS_test_facade_creation -->
<g id="node99" class="node">
<title>LIB_TESTS_test_facade_creation</title>
<polygon fill="lightcoral" stroke="black" points="910.88,-620.5 810.88,-620.5 810.88,-584.5 910.88,-584.5 910.88,-620.5"/>
<text xml:space="preserve" text-anchor="middle" x="860.88" y="-598.62" font-family="Times New Roman,serif" font-size="10.00">test_facade_creation</text>
</g>
<!-- LIB_TESTS_test_port_creation -->
<g id="node100" class="node">
<title>LIB_TESTS_test_port_creation</title>
<polygon fill="lightcoral" stroke="black" points="831,-767.5 740.75,-767.5 740.75,-731.5 831,-731.5 831,-767.5"/>
<text xml:space="preserve" text-anchor="middle" x="785.87" y="-745.62" font-family="Times New Roman,serif" font-size="10.00">test_port_creation</text>
</g>
<!-- TEST_APP_make -->
<g id="node101" class="node">
<title>TEST_APP_make</title>
<polygon fill="lightcoral" stroke="black" points="405.19,-36 351.19,-36 351.19,0 405.19,0 405.19,-36"/>
<text xml:space="preserve" text-anchor="middle" x="378.19" y="-14.12" font-family="Times New Roman,serif" font-size="10.00">make</text>
</g>
<!-- TEST_APP_run_lib_tests -->
<g id="node102" class="node">
<title>TEST_APP_run_lib_tests</title>
<polygon fill="lightcoral" stroke="black" points="454.81,-91 385.56,-91 385.56,-55 454.81,-55 454.81,-91"/>
<text xml:space="preserve" text-anchor="middle" x="420.19" y="-69.12" font-family="Times New Roman,serif" font-size="10.00">run_lib_tests</text>
</g>
<!-- TEST_APP_passed -->
<g id="node103" class="node">
<title>TEST_APP_passed</title>
<polygon fill="lightgray" stroke="black" points="515.19,-146 461.19,-146 461.19,-110 515.19,-110 515.19,-146"/>
<text xml:space="preserve" text-anchor="middle" x="488.19" y="-124.12" font-family="Times New Roman,serif" font-size="10.00">passed</text>
</g>
<!-- TEST_APP_failed -->
<g id="node104" class="node">
<title>TEST_APP_failed</title>
<polygon fill="lightgray" stroke="black" points="440.19,-151 386.19,-151 386.19,-115 440.19,-115 440.19,-151"/>
<text xml:space="preserve" text-anchor="middle" x="413.19" y="-129.12" font-family="Times New Roman,serif" font-size="10.00">failed</text>
</g>
<!-- TEST_APP_run_test -->
<g id="node105" class="node">
<title>TEST_APP_run_test</title>
<polygon fill="lightcoral" stroke="black" points="530.19,-61 476.19,-61 476.19,-25 530.19,-25 530.19,-61"/>
<text xml:space="preserve" text-anchor="middle" x="503.19" y="-39.12" font-family="Times New Roman,serif" font-size="10.00">run_test</text>
</g>
<!-- legend_full -->
<g id="node106" class="node">
<title>legend_full</title>
<polygon fill="palegreen" stroke="black" points="202.88,-1001.62 88.63,-1001.62 88.63,-960.62 202.88,-960.62 202.88,-1001.62"/>
<text xml:space="preserve" text-anchor="middle" x="145.75" y="-984.33" font-family="Times New Roman,serif" font-size="14.00">Full Contract</text>
<text xml:space="preserve" text-anchor="middle" x="145.75" y="-967.83" font-family="Times New Roman,serif" font-size="14.00">(require + ensure)</text>
</g>
<!-- legend_partial -->
<g id="node107" class="node">
<title>legend_partial</title>
<polygon fill="khaki" stroke="black" points="213.38,-937.62 96.13,-937.62 96.13,-896.62 213.38,-896.62 213.38,-937.62"/>
<text xml:space="preserve" text-anchor="middle" x="154.75" y="-920.33" font-family="Times New Roman,serif" font-size="14.00">Partial Contract</text>
<text xml:space="preserve" text-anchor="middle" x="154.75" y="-903.83" font-family="Times New Roman,serif" font-size="14.00">(require or ensure)</text>
</g>
<!-- legend_none -->
<g id="node108" class="node">
<title>legend_none</title>
<polygon fill="lightcoral" stroke="black" points="195.13,-1060.12 112.38,-1060.12 112.38,-1024.12 195.13,-1024.12 195.13,-1060.12"/>
<text xml:space="preserve" text-anchor="middle" x="153.75" y="-1037.08" font-family="Times New Roman,serif" font-size="14.00">No Contract</text>
</g>
<!-- legend_attr -->
<g id="node109" class="node">
<title>legend_attr</title>
<polygon fill="lightgray" stroke="black" points="89.12,-1065.62 24.38,-1065.62 24.38,-1024.62 89.12,-1024.62 89.12,-1065.62"/>
<text xml:space="preserve" text-anchor="middle" x="56.75" y="-1048.33" font-family="Times New Roman,serif" font-size="14.00">Attribute</text>
<text xml:space="preserve" text-anchor="middle" x="56.75" y="-1031.83" font-family="Times New Roman,serif" font-size="14.00">(n/a)</text>
</g>
<!-- legend_stats -->
<g id="node110" class="node">
<title>legend_stats</title>
<polygon fill="white" stroke="black" points="65.5,-1003.62 0,-1003.62 0,-896.62 71.5,-896.62 71.5,-997.62 65.5,-1003.62"/>
<polyline fill="none" stroke="black" points="65.5,-1003.62 65.5,-997.62"/>
<polyline fill="none" stroke="black" points="71.5,-997.62 65.5,-997.62"/>
<text xml:space="preserve" text-anchor="middle" x="35.75" y="-986.33" font-family="Times New Roman,serif" font-size="14.00">Statistics</text>
<text xml:space="preserve" text-anchor="middle" x="35.75" y="-969.83" font-family="Times New Roman,serif" font-size="14.00">Full: 20</text>
<text xml:space="preserve" text-anchor="middle" x="35.75" y="-953.33" font-family="Times New Roman,serif" font-size="14.00">Partial: 9</text>
<text xml:space="preserve" text-anchor="middle" x="35.75" y="-936.83" font-family="Times New Roman,serif" font-size="14.00">None: 45</text>
<text xml:space="preserve" text-anchor="middle" x="35.75" y="-920.33" font-family="Times New Roman,serif" font-size="14.00">Attr: 31</text>
<text xml:space="preserve" text-anchor="middle" x="35.75" y="-903.83" font-family="Times New Roman,serif" font-size="14.00">Total: 105</text>
</g>
</g>
</svg>
