<?xml version="1.0" encoding="UTF-8" standalone="no"?>
<!DOCTYPE svg PUBLIC "-//W3C//DTD SVG 1.1//EN"
 "http://www.w3.org/Graphics/SVG/1.1/DTD/svg11.dtd">
<!-- Generated by graphviz version 14.1.1 (20251213.1925)
 -->
<!-- Title: Dependencies Pages: 1 -->
<svg width="336pt" height="285pt"
 viewBox="0.00 0.00 336.00 285.00" xmlns="http://www.w3.org/2000/svg" xmlns:xlink="http://www.w3.org/1999/xlink">
<g id="graph0" class="graph" transform="scale(1 1) rotate(0) translate(4 280.5)">
<title>Dependencies</title>
<polygon fill="white" stroke="none" points="-4,4 -4,-280.5 332.25,-280.5 332.25,4 -4,4"/>
<text xml:space="preserve" text-anchor="middle" x="164.12" y="-7.2" font-family="Times New Roman,serif" font-size="14.00">simple_serial &#45; Dependencies</text>
<!-- simple_serial -->
<g id="node1" class="node">
<title>simple_serial</title>
<polygon fill="lightblue" stroke="black" points="88.75,-168.5 0,-168.5 0,-132.5 88.75,-132.5 88.75,-168.5"/>
<text xml:space="preserve" text-anchor="middle" x="44.38" y="-145.45" font-family="Times New Roman,serif" font-size="14.00">simple_serial</text>
</g>
<!-- simple_testing -->
<g id="node2" class="node">
<title>simple_testing</title>
<polygon fill="lightblue" stroke="black" points="328.25,-276.5 232.75,-276.5 232.75,-240.5 328.25,-240.5 328.25,-276.5"/>
<text xml:space="preserve" text-anchor="middle" x="280.5" y="-253.45" font-family="Times New Roman,serif" font-size="14.00">simple_testing</text>
</g>
<!-- simple_serial&#45;&gt;simple_testing -->
<g id="edge1" class="edge">
<title>simple_serial&#45;&gt;simple_testing</title>
<path fill="none" stroke="black" stroke-dasharray="5,2" d="M89.01,-159.5C147.64,-159.5 243.25,-159.5 243.25,-159.5 243.25,-159.5 243.25,-228.83 243.25,-228.83"/>
<polygon fill="black" stroke="black" points="239.75,-228.83 243.25,-238.83 246.75,-228.83 239.75,-228.83"/>
</g>
<!-- base -->
<g id="node3" class="node">
<title>base</title>
<polygon fill="lightgray" stroke="black" points="307.5,-204.5 253.5,-204.5 253.5,-168.5 307.5,-168.5 307.5,-204.5"/>
<text xml:space="preserve" text-anchor="middle" x="280.5" y="-181.45" font-family="Times New Roman,serif" font-size="14.00">base</text>
</g>
<!-- simple_serial&#45;&gt;base -->
<g id="edge2" class="edge">
<title>simple_serial&#45;&gt;base</title>
<path fill="none" stroke="black" stroke-dasharray="5,2" d="M89.2,-150.5C155.32,-150.5 271.25,-150.5 271.25,-150.5 271.25,-150.5 271.25,-156.56 271.25,-156.56"/>
<polygon fill="black" stroke="black" points="267.75,-156.56 271.25,-166.56 274.75,-156.56 267.75,-156.56"/>
</g>
<!-- time -->
<g id="node4" class="node">
<title>time</title>
<polygon fill="lightgray" stroke="black" points="307.5,-132.5 253.5,-132.5 253.5,-96.5 307.5,-96.5 307.5,-132.5"/>
<text xml:space="preserve" text-anchor="middle" x="280.5" y="-109.45" font-family="Times New Roman,serif" font-size="14.00">time</text>
</g>
<!-- simple_serial&#45;&gt;time -->
<g id="edge3" class="edge">
<title>simple_serial&#45;&gt;time</title>
<path fill="none" stroke="black" stroke-dasharray="5,2" d="M89,-141.5C159.63,-141.5 289.25,-141.5 289.25,-141.5 289.25,-141.5 289.25,-140.65 289.25,-140.65"/>
<polygon fill="black" stroke="black" points="292.75,-144.47 289.25,-134.47 285.75,-144.47 292.75,-144.47"/>
</g>
<!-- testing -->
<g id="node5" class="node">
<title>testing</title>
<polygon fill="lightgray" stroke="black" points="307.5,-60.5 253.5,-60.5 253.5,-24.5 307.5,-24.5 307.5,-60.5"/>
<text xml:space="preserve" text-anchor="middle" x="280.5" y="-37.45" font-family="Times New Roman,serif" font-size="14.00">testing</text>
</g>
<!-- simple_serial&#45;&gt;testing -->
<g id="edge4" class="edge">
<title>simple_serial&#45;&gt;testing</title>
<path fill="none" stroke="black" stroke-dasharray="5,2" d="M44.25,-132.18C44.25,-101.37 44.25,-42.5 44.25,-42.5 44.25,-42.5 241.89,-42.5 241.89,-42.5"/>
<polygon fill="black" stroke="black" points="241.89,-46 251.89,-42.5 241.89,-39 241.89,-46"/>
</g>
</g>
</svg>
